<svg width="94" height="166" viewBox="0 0 94 166" fill="none" xmlns="http://www.w3.org/2000/svg">
<g clip-path="url(#clip0_1376_1377)">
<path fill-rule="evenodd" clip-rule="evenodd" d="M46.7615 12.3984C32.3761 26.8465 22.8009 47.0852 21.3226 69.9155C18.309 116.677 50.4347 156.569 93.0793 159.023L92.6813 165.238C48.7402 162.704 15.648 121.607 18.7525 73.4243C20.3332 48.9543 30.9432 27.374 46.7729 12.3984H46.7615Z" fill="#ED923A" fill-opacity="0.3"/>
<path fill-rule="evenodd" clip-rule="evenodd" d="M65.6812 160.388C57.3683 163.105 52.3874 155.365 45.3482 154.138C38.309 152.911 36.1028 157.142 31.4062 158.679C42.0276 167.222 53.4791 167.715 65.6698 160.388H65.6812Z" fill="#ED923A" fill-opacity="0.3"/>
<path fill-rule="evenodd" clip-rule="evenodd" d="M50.7055 149.22C42.1084 150.045 38.6513 141.308 32.0101 138.521C25.3689 135.735 22.4577 139.416 17.6133 139.886C26.4379 150.676 37.5027 153.715 50.7055 149.22Z" fill="#ED923A" fill-opacity="0.3"/>
<path fill-rule="evenodd" clip-rule="evenodd" d="M34.7884 132.052C27.101 131.399 25.2133 123.086 19.732 119.554C14.2394 116.022 11.1917 118.808 6.84766 118.441C13.1818 129.438 22.5409 133.922 34.7998 132.052H34.7884Z" fill="#ED923A" fill-opacity="0.3"/>
<path fill-rule="evenodd" clip-rule="evenodd" d="M26.0426 115.439C19.0262 113.157 18.7873 104.981 14.3409 100.486C9.89451 95.9912 6.55117 97.9405 2.59375 96.6562C6.48294 108.306 14.3523 114.521 26.054 115.427L26.0426 115.439Z" fill="#ED923A" fill-opacity="0.3"/>
<path fill-rule="evenodd" clip-rule="evenodd" d="M20.51 98.3999C13.9825 94.7994 15.0514 86.6809 11.4011 81.3948C7.75067 76.1086 4.15715 77.3929 0.472656 75.3633C2.42862 87.6212 9.16079 95.258 20.51 98.3999Z" fill="#ED923A" fill-opacity="0.3"/>
<path fill-rule="evenodd" clip-rule="evenodd" d="M18.8818 79.8205C13.2641 74.7408 15.9138 67.0351 13.4233 60.9807C10.9329 54.9263 7.18014 55.3276 4.00738 52.4609C3.4729 64.9367 8.48791 74.0413 18.8818 79.8205Z" fill="#ED923A" fill-opacity="0.3"/>
<path fill-rule="evenodd" clip-rule="evenodd" d="M21.0126 59.0572C17.3509 52.9798 21.513 46.9712 20.7966 40.9397C20.0915 34.8968 16.7368 34.1744 14.6671 30.7344C11.1987 41.536 13.3707 50.9846 21.0126 59.0572Z" fill="#ED923A" fill-opacity="0.3"/>
<path fill-rule="evenodd" clip-rule="evenodd" d="M25.1384 41.4533C23.5805 35.1008 28.6523 31.225 29.5962 25.8127C30.5401 20.4004 27.8791 18.7492 27.0034 15.1602C21.2947 23.3818 20.7261 32.1538 25.1498 41.4419L25.1384 41.4533Z" fill="#ED923A" fill-opacity="0.3"/>
<path fill-rule="evenodd" clip-rule="evenodd" d="M33.8566 27.0972C33.3107 22.2698 37.3591 19.9993 38.5418 16.1465C39.7245 12.2937 37.9391 10.7801 37.6321 8.0625C32.7194 13.4519 31.4799 19.8044 33.8452 27.0972H33.8566Z" fill="#ED923A" fill-opacity="0.3"/>
<path fill-rule="evenodd" clip-rule="evenodd" d="M42.4844 15.412C43.3146 11.2152 47.2606 10.6075 49.2507 7.77519C51.2521 4.94291 50.1832 3.1197 50.6494 0.746094C45.1682 3.6701 42.473 8.58932 42.4844 15.412Z" fill="#ED923A" fill-opacity="0.3"/>
<path fill-rule="evenodd" clip-rule="evenodd" d="M77.2067 154.483C72.0552 148.371 75.535 141.136 73.6359 134.623C71.7368 128.098 67.9158 127.823 65.0046 124.383C63.1737 136.778 67.3017 146.812 77.2067 154.494V154.483Z" fill="#ED923A" fill-opacity="0.3"/>
<path fill-rule="evenodd" clip-rule="evenodd" d="M62.2463 147.177C57.2313 141.111 60.7907 133.876 59.0167 127.386C57.2427 120.896 53.4559 120.632 50.6243 117.215C48.6114 129.576 52.5575 139.563 62.2463 147.177Z" fill="#ED923A" fill-opacity="0.3"/>
<path fill-rule="evenodd" clip-rule="evenodd" d="M45.5275 133.359C42.2866 126.766 46.9718 121.113 46.7216 114.898C46.4714 108.671 43.1281 107.559 41.2972 103.844C36.9418 114.45 38.4201 124.3 45.5275 133.371V133.359Z" fill="#ED923A" fill-opacity="0.3"/>
<path fill-rule="evenodd" clip-rule="evenodd" d="M32.7816 116.159C31.0076 109.405 36.3524 105.151 37.2735 99.3489C38.1833 93.5467 35.3176 91.8382 34.3055 88.0312C28.3466 96.9294 27.8917 106.332 32.7816 116.159Z" fill="#ED923A" fill-opacity="0.3"/>
<path fill-rule="evenodd" clip-rule="evenodd" d="M25.4242 95.1408C24.7305 88.9259 29.9616 86.0019 31.4854 81.0368C33.0206 76.0717 30.7235 74.1338 30.3368 70.625C23.9913 77.5509 22.3879 85.7496 25.4242 95.1408Z" fill="#ED923A" fill-opacity="0.3"/>
<path fill-rule="evenodd" clip-rule="evenodd" d="M24.1349 73.3548C24.84 67.7705 29.9574 66.5321 32.3227 62.599C34.6881 58.6659 33.1188 56.3955 33.5054 53.2422C26.5799 57.6798 23.4868 64.4108 24.1349 73.3548Z" fill="#ED923A" fill-opacity="0.3"/>
<path fill-rule="evenodd" clip-rule="evenodd" d="M27.2656 52.864C29.0283 48.2544 33.6225 48.4723 36.4541 45.6973C39.2744 42.9109 38.4215 40.5717 39.4108 37.9688C32.6104 40.0442 28.5848 45.0437 27.2656 52.864Z" fill="#ED923A" fill-opacity="0.3"/>
<path fill-rule="evenodd" clip-rule="evenodd" d="M33.543 37.1798C35.715 33.4875 39.6497 34.4622 42.4927 32.5358C45.3243 30.6094 44.9149 28.4307 46.143 26.3438C39.9908 26.9744 35.806 30.6208 33.543 37.1798Z" fill="#ED923A" fill-opacity="0.3"/>
<path fill-rule="evenodd" clip-rule="evenodd" d="M41.457 23.2095C43.5153 20.4116 46.6312 21.5812 49.0762 20.2855C51.5212 18.9897 51.3733 17.178 52.5333 15.5956C47.4955 15.5153 43.811 18.0839 41.457 23.198V23.2095Z" fill="#ED923A" fill-opacity="0.3"/>
<path fill-rule="evenodd" clip-rule="evenodd" d="M50.8633 10.2535C52.8306 6.91669 56.3787 7.79963 58.9373 6.05669C61.496 4.32522 61.1321 2.35294 62.2352 0.460938C56.6743 1.02281 52.8989 4.32522 50.8633 10.242V10.2535Z" fill="#ED923A" fill-opacity="0.3"/>
</g>
<defs>
<clipPath id="clip0_1376_1377">
<rect width="92.59" height="165.052" fill="white" transform="translate(0.472656 0.472656)"/>
</clipPath>
</defs>
</svg>
