<svg width="94" height="166" viewBox="0 0 94 166" fill="none" xmlns="http://www.w3.org/2000/svg">
<g clip-path="url(#clip0_1376_1399)">
<path fill-rule="evenodd" clip-rule="evenodd" d="M47.0588 12.3984C61.4442 26.8465 71.0194 47.0852 72.4977 69.9155C75.5113 116.677 43.3857 156.569 0.74102 159.023L1.13903 165.238C45.0801 162.704 78.1723 121.607 75.0678 73.4243C73.4871 48.9543 62.8771 27.374 47.0474 12.3984H47.0588Z" fill="#ED923A" fill-opacity="0.3"/>
<path fill-rule="evenodd" clip-rule="evenodd" d="M28.1313 160.388C36.4442 163.105 41.4251 155.365 48.4643 154.138C55.5035 152.911 57.7097 157.142 62.4062 158.679C51.7849 167.222 40.3334 167.715 28.1427 160.388H28.1313Z" fill="#ED923A" fill-opacity="0.3"/>
<path fill-rule="evenodd" clip-rule="evenodd" d="M43.1109 149.22C51.708 150.045 55.1651 141.308 61.8063 138.521C68.4475 135.735 71.3587 139.416 76.2031 139.886C67.3785 150.676 56.3137 153.715 43.1109 149.22Z" fill="#ED923A" fill-opacity="0.3"/>
<path fill-rule="evenodd" clip-rule="evenodd" d="M59.0241 132.052C66.7115 131.399 68.5992 123.086 74.0805 119.554C79.5731 116.022 82.6208 118.808 86.9648 118.441C80.6307 129.438 71.2716 133.922 59.0127 132.052H59.0241Z" fill="#ED923A" fill-opacity="0.3"/>
<path fill-rule="evenodd" clip-rule="evenodd" d="M67.7816 115.439C74.7981 113.157 75.0369 104.981 79.4833 100.486C83.9297 95.9912 87.273 97.9405 91.2305 96.6562C87.3413 108.306 79.4719 114.521 67.7702 115.427L67.7816 115.439Z" fill="#ED923A" fill-opacity="0.3"/>
<path fill-rule="evenodd" clip-rule="evenodd" d="M73.3065 98.3999C79.8339 94.7994 78.765 86.6809 82.4153 81.3948C86.0657 76.1086 89.6593 77.3929 93.3438 75.3633C91.3878 87.6212 84.6556 95.258 73.3065 98.3999Z" fill="#ED923A" fill-opacity="0.3"/>
<path fill-rule="evenodd" clip-rule="evenodd" d="M74.9307 79.8205C80.5484 74.7408 77.8987 67.0351 80.3892 60.9807C82.8796 54.9263 86.6324 55.3276 89.8051 52.4609C90.3396 64.9367 85.3246 74.0413 74.9307 79.8205Z" fill="#ED923A" fill-opacity="0.3"/>
<path fill-rule="evenodd" clip-rule="evenodd" d="M72.8038 59.0572C76.4655 52.9798 72.3034 46.9712 73.0199 40.9397C73.7249 34.8968 77.0796 34.1744 79.1493 30.7344C82.6177 41.536 80.4457 50.9846 72.8038 59.0572Z" fill="#ED923A" fill-opacity="0.3"/>
<path fill-rule="evenodd" clip-rule="evenodd" d="M68.678 41.4533C70.2359 35.1008 65.1641 31.225 64.2202 25.8127C63.2763 20.4004 65.9373 18.7492 66.813 15.1602C72.5217 23.3818 73.0903 32.1538 68.6666 41.4419L68.678 41.4533Z" fill="#ED923A" fill-opacity="0.3"/>
<path fill-rule="evenodd" clip-rule="evenodd" d="M59.9676 27.0972C60.5135 22.2698 56.4651 19.9993 55.2824 16.1465C54.0997 12.2937 55.8851 10.7801 56.1922 8.0625C61.1048 13.4519 62.3444 19.8044 59.979 27.0972H59.9676Z" fill="#ED923A" fill-opacity="0.3"/>
<path fill-rule="evenodd" clip-rule="evenodd" d="M51.3398 15.4159C50.5097 11.2191 46.5636 10.6114 44.5735 7.77909C42.5721 4.94682 43.641 3.12361 43.1748 0.75C48.656 3.67401 51.3512 8.59323 51.3398 15.4159Z" fill="#ED923A" fill-opacity="0.3"/>
<path fill-rule="evenodd" clip-rule="evenodd" d="M16.6058 154.483C21.7573 148.371 18.2775 141.136 20.1766 134.623C22.0757 128.098 25.8967 127.823 28.8079 124.383C30.6388 136.778 26.5108 146.812 16.6058 154.494V154.483Z" fill="#ED923A" fill-opacity="0.3"/>
<path fill-rule="evenodd" clip-rule="evenodd" d="M31.574 147.177C36.589 141.111 33.0296 133.876 34.8036 127.386C36.5776 120.896 40.3645 120.632 43.1961 117.215C45.2089 129.576 41.2628 139.563 31.574 147.177Z" fill="#ED923A" fill-opacity="0.3"/>
<path fill-rule="evenodd" clip-rule="evenodd" d="M48.2889 133.359C51.5299 126.766 46.8446 121.113 47.0948 114.898C47.345 108.671 50.6883 107.559 52.5192 103.844C56.8746 114.45 55.3963 124.3 48.2889 133.371V133.359Z" fill="#ED923A" fill-opacity="0.3"/>
<path fill-rule="evenodd" clip-rule="evenodd" d="M61.0348 116.159C62.8088 109.405 57.464 105.151 56.5429 99.3489C55.6331 93.5467 58.4988 91.8382 59.5109 88.0312C65.4698 96.9294 65.9247 106.332 61.0348 116.159Z" fill="#ED923A" fill-opacity="0.3"/>
<path fill-rule="evenodd" clip-rule="evenodd" d="M68.4039 95.1408C69.0976 88.9259 63.8666 86.0019 62.3427 81.0368C60.8075 76.0717 63.1046 74.1338 63.4913 70.625C69.8368 77.5509 71.4402 85.7496 68.4039 95.1408Z" fill="#ED923A" fill-opacity="0.3"/>
<path fill-rule="evenodd" clip-rule="evenodd" d="M69.6815 73.3548C68.9764 67.7705 63.859 66.5321 61.4937 62.599C59.1283 58.6659 60.6977 56.3955 60.311 53.2422C67.2365 57.6798 70.3297 64.4108 69.6815 73.3548Z" fill="#ED923A" fill-opacity="0.3"/>
<path fill-rule="evenodd" clip-rule="evenodd" d="M66.5508 52.864C64.7881 48.2544 60.1939 48.4723 57.3623 45.6973C54.5421 42.9109 55.3949 40.5717 54.4056 37.9688C61.206 40.0442 65.2316 45.0437 66.5508 52.864Z" fill="#ED923A" fill-opacity="0.3"/>
<path fill-rule="evenodd" clip-rule="evenodd" d="M60.2695 37.1798C58.0975 33.4875 54.1628 34.4622 51.3198 32.5358C48.4882 30.6094 48.8976 28.4307 47.6695 26.3438C53.8217 26.9744 58.0065 30.6208 60.2695 37.1798Z" fill="#ED923A" fill-opacity="0.3"/>
<path fill-rule="evenodd" clip-rule="evenodd" d="M52.3594 23.2095C50.3011 20.4116 47.1852 21.5812 44.7402 20.2855C42.2952 18.9897 42.4431 17.178 41.2831 15.5956C46.3209 15.5153 50.0054 18.0839 52.3594 23.198V23.2095Z" fill="#ED923A" fill-opacity="0.3"/>
<path fill-rule="evenodd" clip-rule="evenodd" d="M42.9531 10.2535C40.9858 6.91669 37.4378 7.79963 34.8791 6.05669C32.3204 4.32522 32.6843 2.35294 31.5812 0.460938C37.1421 1.02281 40.9176 4.32522 42.9531 10.242V10.2535Z" fill="#ED923A" fill-opacity="0.3"/>
</g>
<defs>
<clipPath id="clip0_1376_1399">
<rect width="92.59" height="165.052" fill="white" transform="matrix(-1 0 0 1 93.3438 0.472656)"/>
</clipPath>
</defs>
</svg>
